<?xml version="1.0" encoding="UTF-8" standalone="no"?>
<!-- Created with Inkscape (http://www.inkscape.org/) -->

<svg
   xmlns:dc="http://purl.org/dc/elements/1.1/"
   xmlns:cc="http://creativecommons.org/ns#"
   xmlns:rdf="http://www.w3.org/1999/02/22-rdf-syntax-ns#"
   xmlns:svg="http://www.w3.org/2000/svg"
   xmlns="http://www.w3.org/2000/svg"
   xmlns:sodipodi="http://sodipodi.sourceforge.net/DTD/sodipodi-0.dtd"
   xmlns:inkscape="http://www.inkscape.org/namespaces/inkscape"
   width="1421.353"
   height="1421.25"
   id="svg2"
   version="1.1"
   inkscape:version="0.48.4 r9939"
   sodipodi:docname="Geoloek_fixed.svg">
  <defs
     id="defs4" />
  <sodipodi:namedview
     id="base"
     pagecolor="#ffffff"
     bordercolor="#666666"
     borderopacity="1.0"
     inkscape:pageopacity="0.0"
     inkscape:pageshadow="2"
     inkscape:zoom="0.35"
     inkscape:cx="932.64918"
     inkscape:cy="416.67921"
     inkscape:document-units="px"
     inkscape:current-layer="layer1"
     showgrid="false"
     fit-margin-top="0"
     fit-margin-left="0"
     fit-margin-right="0"
     fit-margin-bottom="0"
     inkscape:window-width="1920"
     inkscape:window-height="1148"
     inkscape:window-x="1920"
     inkscape:window-y="0"
     inkscape:window-maximized="1" />
  <metadata
     id="metadata7">
    <rdf:RDF>
      <cc:Work
         rdf:about="">
        <dc:format>image/svg+xml</dc:format>
        <dc:type
           rdf:resource="http://purl.org/dc/dcmitype/StillImage" />
      </cc:Work>
    </rdf:RDF>
  </metadata>
  <g
     inkscape:label="Layer 1"
     inkscape:groupmode="layer"
     id="layer1"
     transform="translate(-323.60922,249.69139)">
    <path
       id="path3104"
       d="m 1626.1672,705.30861 c 1.7,27.7125 -10.5,45.85125 -26.25,63.75 -3.9375,4.475 -14.9625,12.1625 -15,15 -0.05,4.1125 14.4,14.1125 17.5,18.75 13.5375,20.25 19.5375,57.35 7.5,86.25 -12.05,3.8 -36.725,3.9625 -48.75,0 -3.8625,-6.53625 -0.525,-15.3 0,-23.75 1.2625,-20.275 -2.6,-41.1875 -11.25,-52.5 -26.975,5.875 -13.8625,52.975 -20,76.25 -11.3125,3.6 -36.325,4.3 -47.5,0 -5.5875,-37.4625 5,-81.2375 12.5,-122.5 3.55,-19.56125 7.05,-39.8 11.25,-58.75 5.1875,-23.3875 10.85,-51.45 23.75,-63.75 14.25,1.58875 35.8125,-4.14875 42.5,5 -3.5875,21.025 -12.275,39.825 -17.5,60 -5.325,20.53875 -9.825,41.0875 -13.75,63.75 7.05,0.15 9.9125,-7.89875 13.75,-12.5 4.4875,-5.3875 8.675,-10.025 12.5,-16.25 7.5625,-12.27375 12.05,-26.53625 17.5,-40 11.5625,-1.6125 31.5625,-2.9625 41.25,1.25 z"
       inkscape:connector-curvature="0" />
    <path
       id="path3106"
       d="m 1566.1672,144.05861 c 37.6625,78.275 66.2875,180.45 58.75,297.5 -1.7125,26.675 -6.0875,53.5 -11.25,78.75 -4.8875,23.87625 -10.9,47.6375 -20,68.75 -7.5,0 -15,0 -22.5,0 -3.9875,-1.9375 0.95,-8.925 2.5,-13.75 24.4625,-75.95 35.9625,-184.7875 17.5,-280 -17.725,-91.3875 -57.775,-172.8375 -103.75,-233.75 -46.95,-62.1875 -109.55,-118.1625 -181.25,-157.5 -73.225,-40.175 -163.2875,-67.5 -270,-67.5 -106.71251,0 -196.63751,26.8 -271.25001,67.5 -72.4875,39.5375 -133.75,94.0875 -181.25,156.25 -68.15,89.1875 -127.075,223.375 -112.5,391.25 4.2625,49.08875 17.3125,95.7875 28.75,137.5 -7.5,0 -15,0 -22.5,0 -5.9375,-2.75 -4.7,-10.025 -6.25,-15 -11.1,-35.625 -20.5625,-79.4 -25,-123.75 -5.3125,-53.0875 -0.65,-108.8125 8.75,-158.75 17.625,-93.6 56.875,-174.7875 102.5,-237.5 47.4125,-65.1625 107.7625,-119.375 178.75,-161.25 71.85,-42.375 159.7,-74.9875 260,-80 114.88751,-5.7375 220.95001,18.6875 302.50001,60 119.375,60.475 208.9125,149.4875 267.5,271.25 z"
       inkscape:connector-curvature="0" />
    <path
       id="path3108"
       d="m 1571.1672,927.80861 c 0,7.5 0,15 0,22.5 -357.9125,0 -715.83751,0 -1073.75001,0 0,-7.5 0,-15 0,-22.5 93.3625,0 197.6875,0 295,0 33.425,0 67.85,3.9625 97.5,0 20.7875,-2.775 35.475,-13.775 50,-25 21.35,-25.13625 20.8125,-69.075 22.5,-108.75 1.85,-43.7125 -0.2875,-89.7625 -5,-127.5 -9.2375,-1.1875 -17.85,-2.9875 -18.75,-12.5 -14.4875,3.0125 -32.85,0.825 -38.75,-8.75 -1.175,-14.45 9.5875,-20.28625 0,-30 -4.9,15.22625 -25.4625,5.875 -31.25,-2.5 -5.6,6.9625 -8.6375,12.3375 -17.5,11.25 -13.5375,-1.6625 -19.0875,-27.6625 -22.5,-40 -3.325,-2.925 -7.2125,-5.28625 -8.75,-10 -5.125,0.12625 -10.25,0.25 -13.75,-1.25 -4.6625,-7 -9.425,-13.9125 -10,-25 -9.725,-1.9375 -20.5125,-2.8125 -27.5,-7.5 -1.925,-4.325 -1.1,-11.4 -1.25,-17.5 -1.9125,-1.8125 -15.1125,0.1375 -18.75,-3.75 -3.425,-12.3375 0.1875,-28.025 1.25,-40 -11.775,-4.8375 -31.1125,-4.5 -32.5,-18.75 -0.5625,-5.75 2.55,-9.5125 6.25,-15 -10.8375,-7.35 -49.8625,-46.4375 -13.75,-51.25 -6.4,-10.1125 -9.6625,-39.5125 6.25,-41.25 -4.1875,-12.275 -8.95,-29.9125 -5,-46.25 3.6375,-3.45 8.3125,-5.85 15,-6.25 0.3625,-7.1375 2.4625,-12.5375 5,-17.5 -5.6375,-12.275 -13.4125,-22.4125 -12.5,-41.25 4.125,-6.2875 10.175,-10.6625 21.25,-10 0.5875,-6.6625 -1.8625,-25.6 3.75,-31.25 4.4125,-1.8375 9.25,-3.25 16.25,-2.5 -0.4875,-14.65 3.7,-24.6375 8.75,-33.75 4.2625,-1.6875 9.925,-3.925 15,-1.25 3.025,-17.2625 11.8375,-34.4375 31.25,-31.25 3.0125,-2.4 4.9625,-5.875 7.5,-8.75 -9.6375,-16.425 -6.7625,-38.2125 20,-33.75 -0.2375,-18.45 9.6375,-35.65 27.5,-25 8.125,-4.7875 11.1375,-14.6875 18.75,-20 7.1375,1.2 9,7.6625 15,10 8.275,-7.7625 28.1,-20 37.5,-5 8.0625,-5.35 26.95,-11.525 38.75,-5 10.2875,-6.8 19.4375,-14.725 33.75001,-17.5 5.275,3.475 6.5375,10.9625 8.75,17.5 5.85,-7.9 12.4625,-15.0375 21.25,-20 4.525,1.725 4.6,7.9 8.75,10 10.6875,-3.0625 20.5,-7 33.75,-7.5 3.85,2.9875 1.3,5.8875 1.25,11.25 6.475,2.275 12.175,5.325 18.75,7.5 6,-2.325 4.5625,-12.1 11.25,-13.75 17.8875,3.3625 33.1125,9.3875 42.5,21.25 3.7875,-1.2125 6.7,-3.3 11.25,-3.75 11.175,4.6625 20.2375,11.4375 23.75,23.75 14.1875,-14.075 40.3125,-7.0125 33.75,16.25 3.5125,0.525 16.9,-1.025 21.25,2.5 4.0875,5.475 4.725,8.875 5,16.25 12.175,-13.625 34.9875,-2.1625 35,20 3.05,0.3625 14.8625,-0.8 17.5,3.75 3.5,5.6625 3.75,20.625 0,26.25 16.15,0.5125 29.825,20.2875 13.75,31.25 6.3625,7.3875 13.5125,13.9875 18.75,22.5 4.175,6.6 -6.3125,6.7875 -6.25,11.25 0.037,2.6875 10.025,12.1625 12.5,16.25 5.6625,9.35 15.25,27.075 -2.5,31.25 4.25,5.75 5.35,19.3125 1.25,26.25 1.9125,5.1625 10.975,3.1875 13.75,7.5 4.6125,17.6625 -4.45,30.9875 -10,42.5 5.75,5.5 14.8,7.7 18.75,15 1.325,21.7375 -5.8875,34.95 -18.75,42.5 11.5,9.4 2.75,28.375 -3.75,37.5 4,12.8875 6.3875,19.575 1.25,31.25 -2.85,6.5 -14.5625,12.925 -15,16.25 -0.6,4.55125 10.8375,8.15125 6.25,15 -8.4875,13.175 -25.7375,17.6 -42.5,22.5 0.062,9.65 0.65,19.825 -2.5,26.25 -5.725,3.725 -14.2875,7.4625 -22.5,5 -4.2375,11.1875 -10.875,19.9625 -27.5,18.75 8.45,18.675 -15.6375,31.05 -36.25,32.5 1.2375,12.7125 -12.6375,19.40125 -27.5,20 10.05,25.5125 -18.6,28.2375 -41.25,28.75 -13.275,25.2 -11.25,63.45 -11.25,105 0,19.5375 -2.45,40.3 -1.25,57.5 0.325,4.7375 3.2125,9.23875 3.75,13.75 0.7625,6.3625 -0.4625,12.52625 0,18.75 2.25,30.1 15,48.55 31.25,65 18.95,11.37625 42.3,10 75,10 108.0375,0 228.4375,0 336.25,0 z m -241.25,-525 c 14.6375,-5.775 24.375,-16.4625 26.25,-35 -5.3375,-7.9875 -15.175,-11.4875 -23.75,-16.25 1.825,-16.0875 14.9375,-20.9 15,-38.75 -3.8375,-2.825 -12.875,-0.4625 -15,-5 3.175,-7.25 6.3375,-14.5 5,-26.25 -3.05,-5.7 -10.6375,-6.8625 -8.75,-17.5 3.7375,-2.9375 10.9875,-2.35 13.75,-6.25 -3.3875,-16.6125 -16,-24 -23.75,-36.25 -7.7125,0.2125 -12.2375,-2.75 -17.5,-5 -0.575,6.0875 -5.475,7.8625 -6.25,13.75 7.0625,3.125 17.3375,7.5125 17.5,15 0.1375,6.5125 -6.9125,6.7125 -8.75,13.75 3.025,18.625 -7,32.275 -20,38.75 -5.5,-0.1625 -5.9375,-6.45 -10,-6.25 -2.8625,0.1375 -13.2375,15.1375 -20,11.25 -6.7,-5.7875 -9.35,-15.65 -12.5,-25 -2.025,-2.0375 -5.225,1.1125 -10,0 -5.9625,-3.625 -8.95,-10.2125 -11.25,-17.5 -4.6375,0.7875 -7.325,3.5125 -11.25,5 -8.15,-2.675 -6.625,-15.0375 -18.75,-13.75 0.5625,5.275 4.925,6.7375 3.75,13.75 9.6375,1.6125 16.2375,6.2625 21.25,12.5 0.3375,4.5 -2.3125,6.025 -2.5,10 9.9125,2.5875 18.2,6.8 20,17.5 0.1,5.9375 -6.575,5.0875 -6.25,11.25 6.4625,9.9125 20.175,11.3875 28.75,18.75 5.825,5 9.4125,11.4125 13.75,17.5 -3.125,7.3 -9.0125,11.825 -12.5,18.75 3.8,9.1375 12.4125,29.6125 0,33.75 -5.775,0.775 -7.1875,-2.8 -12.5,-2.5 -6.8,12.3625 -16.1125,22.225 -26.25,31.25 2.1625,2.0125 7.725,0.6125 8.75,3.75 1.0625,15.65 -8.75,20.4125 -17.5,26.25 3.475,5.275 7.1375,10.3625 7.5,18.75 -2.175,3.65 -11.1,0.5625 -12.5,5 5.6375,7.75 6.6875,26.32625 1.25,35 -2.6875,2.31375 -9.1625,0.85125 -13.75,1.25 0.5,15.9125 -2.75,28.0875 -12.5,33.75 -3.975,-0.8375 -4.875,-9.2125 -8.75,-6.25 0.55,16.9375 -9.425,28.9 -26.25,21.25 -5.0375,11.2125 -9.25,23.2625 -21.25,27.5 -5.8125,-2.9375 -6.95,-10.54875 -10,-16.25 -8.6375,4.575 -42.0125,13.66375 -46.25,0 -1.775,-5.7375 4.2375,-10.5375 5,-17.5 -7.2625,-8.1625 -18.575,-12.2625 -22.5,-23.75 3.0875,-2.75 6.4,-5.275 11.25,-6.25 0.125,-5.9625 -4.825,-6.8375 -5,-12.5 -14.9375,-0.0863 -26.625,1.0375 -28.75,-8.75 -1.8875,-8.7375 8.975,-16.64875 11.25,-25 -5.575,-6.0875 -14.4625,-8.875 -17.5,-17.5 1.3375,-8.2375 12.0125,-7.15 16.25,-12.5 -3.9375,-1.8875 -4.1625,-7.5 -6.25,-11.25 -13.8375,2 -23.525,8.15 -38.75001,8.75 -5.025,-4.1375 -10.2125,-8.125 -11.25,-16.25 -14.125,1.625 -19.1375,-5.8625 -26.25,-11.25 -5.8125,0.85 -10.475,2.8625 -16.25,3.75 -4,-4.3375 -2.0625,-14.6 -2.5,-22.5 -9.2625,1.35 -22.0625,7.5 -27.5,-1.25 1.5,-7.25 5.575,-11.925 7.5,-18.75 -14.0875,-8.4 -23.025,-21.975 -26.25,-41.25 4.3875,-6.8625 12.575,-9.925 21.25,-12.5 -0.1,-6.3875 -10.7375,-12.425 -8.75,-25 0.975,-0.275 1.45,-1.05 1.25,-2.5 4.7,-2.8 11.8125,-3.1875 17.5,-5 -2.6875,-6.2375 -7.475,-22.575 0,-27.5 9.95,-0.775 16.75,1.575 22.5,5 3.6125,-7.5125 13.8,-8.2875 23.75,-6.25 1.5125,-8.075 2.85,-16.3125 8.75,-20 7.575,6.175 14.5375,12.9625 20,21.25 11.31251,-5.4375 21.38751,-18.5 40.00001,-12.5 0,3.75 0,7.5 0,11.25 8.4375,-5.925 23.125,-10.8375 32.5,-2.5 3.9375,-7.7375 6.4125,-16.925 15,-20 3.8875,1.1125 5.825,4.175 10,5 2.2,-11.85 16.6125,-26.4375 26.25,-12.5 4.7375,-4.4375 16.55,-1.775 25,-2.5 0.7625,-6.3125 6.4,-7.7625 6.25,-15 -12.8875,-3.7875 -18.725,-14.6 -26.25,-23.75 -8.2875,6.7125 -21.8125,8.2 -37.5,7.5 1.5125,5.5625 1.2875,12.7375 -3.75,15 -18.0875,1.425 -30.7125,-2.625 -40,-10 -4.15,12.825 -18.1625,33.4125 -32.5,28.75 -11.75001,-3.825 -1.875,-22.1875 -8.75,-32.5 -2.78751,5.5375 -4.82501,11.85 -11.25001,13.75 -3.9125,-1.5 -8.3375,-2.5 -12.5,-3.75 2.825,9.7 -0.825,22.05 -7.5,26.25 -10.7125,-1.375 -14.8875,-9.2875 -21.25,-15 -4.8875,7.025 -20.9875,14.75 -28.75,7.5 1.9875,-10.5125 6.3375,-18.6625 11.25,-26.25 -5.95,-8.7375 -14.475,-21.225 -11.25,-35 8.0125,-0.5125 13.3875,1.6125 18.75,3.75 3.7625,-7.9 2.9625,-20.375 11.25,-23.75 5.7375,-1.15 6.0375,3.125 11.25,2.5 1.775,-11.1375 6.3,-19.5375 12.5,-26.25 8.25,1.1375 7.4125,9.3625 15,8.75 10.8625,-0.8625 9.65,-19.5375 17.50001,-28.75 3.7625,-4.4125 7.275,-3.525 10,-7.5 -11.7125,-7.45 -20.65001,-17.6875 -23.75001,-33.75 0.975,-0.275 1.45,-1.05 1.25,-2.5 6.25,-1.25 12.06251,-2.9375 20.00001,-2.5 -0.3875,-11.7 1.9,-26.075 -6.25,-30 -10.56251,2.775 -15.27501,11.4 -25.00001,15 -14.275,-8.4125 -34.275,-1.325 -45,5 -3.475,9.8625 -9.4625,17.2 -18.75,21.25 12.075,9.85 -2.45,22.225 -7.5,30 3.175,0.15 4.85,1.825 5,5 -4.375,9.8 -13.2875,15.0375 -23.75,18.75 0.45,8.125 4.05,22 -2.5,26.25 -9.9125,3.4125 -15.6875,-6.325 -25,-7.5 -1.375,6.95 -0.725,15.9375 -6.25,18.75 -5.775,-0.0625 -4.55,-7.125 -11.25,-6.25 -9.0375,9.175 -9.1,39.675 -23.75,40 -6.5875,0.15 -6.6125,-5.8625 -12.5,-8.75 -3.7,3.8125 -11.65,3.35 -17.5,5 -4.7625,6.0625 -11.3,10.375 -20,12.5 -6.5,-1.825 -10.8625,-5.8 -20,-5 -4.9625,27.4875 19.3375,54.7875 3.75,81.25 4.45,4.3125 3.75,13.75 3.75,22.5 5.3125,0.3125 6.725,-3.2625 12.5,-2.5 8.325,12.3375 -0.275,28.4 -5,38.75 5.9625,0.5125 13.8,-3.6375 18.75,0 0.9375,11.775 -3.9,17.775 -8.75,23.75 6.375,2.8 14.2625,4.075 16.25,11.25 -2.025,3.8125 -6.275,5.3875 -7.5,10 3.6125,0.5625 2.95,5.375 6.25,6.25 3.4125,-4.0875 8.1625,-6.8375 15,-7.5 8.175,7.125 8.1375,21.7875 3.75,32.5 9.725,1.525 19.5,3 23.75,10 -0.85,6.175 -11.025,8.5 -8.75,13.75 12.1375,3.275 21.4,9.4375 27.5,18.75 -2.4125,5.0875 -8.6125,6.3875 -10,12.5 8.6125,4.3 13.65,12.1875 15,23.75 -4.9125,3 -13.9125,1.925 -17.5,6.25 3.7,4.6375 4.925,11.73875 6.25,18.75 -3.475,3.20125 -9.025,4.3125 -16.25,3.75 -0.225,9.775 -5.3625,14.6375 -7.5,22.5 2.825,7.62625 10.5125,11.2625 15,18.75 6.15,10.2625 4.85,25.1625 15,32.5 3.4625,-6.53625 5.55,-14.45 10,-20 8.1375,5.6125 10.65,16.85 22.5,18.75 2.6,-3.225 -0.4375,-12.11125 2.5,-15 5.0375,3.30125 8.7,7.9625 17.5,7.5 3.2625,10.9 11.9875,16.35 16.25,26.25 -3.975,3.525 -7.6,7.4 -10,12.5 13.4625,6.4125 29.775,-0.475 40,-5 0.3875,6.2125 -0.2,11.47625 -1.25,16.25 8.6875,3.7875 17.7375,-2.0375 23.75,-5 10.475,4.625 21.675,14.875 36.25001,11.25 -0.625,-8.125 -6.7375,-10.76125 -7.5,-18.75 8.2875,-1.5625 22.45,4.15 31.25,2.5 -0.013,7.775 -6.6875,14.5875 -2.5,22.5 14.3375,-3.1625 22.7625,-12.2375 33.75,-18.75 -0.6875,12.775 4.65,19.5125 8.75,27.5 4.9875,-2.575 9.9875,-7.775 12.5,-13.75 2.6,-6.17375 0.2875,-14.9125 6.25,-18.75 5.8125,7.52625 9.8625,16.8125 20,20 3.0125,-6.15 5.5875,-12.73625 10,-17.5 11.9,2.5875 30.75,1.7 41.25,-1.25 1.675,-10.8375 -7.9375,-10.3875 -8.75,-18.75 10.975,-3.1875 22.05,-6.275 33.75,-8.75 -0.225,-7.68625 -6.95,-8.875 -7.5,-16.25 19.225,0.9 33.7875,-2.875 46.25,-8.75 -1.5375,-8.0375 -11.9625,-7.2 -13.75,-15 7.6125,-1.9 9.675,-9.56125 17.5,-11.25 5.425,-1.17375 11.725,4.05 18.75,0 5.8375,-4.14875 2.3,-17.7 8.75,-21.25 4.3125,3.1875 10.75,4.25 18.75,3.75 3.8875,-9.575 -0.925,-20.54875 -2.5,-28.75 15.9,-4.1 35.5,-4.5 43.75,-16.25 -3.8125,-4.525 -10.4375,-6.22375 -11.25,-13.75 16.8875,-3.3875 34.275,-25.7875 18.75,-42.5 6.325,-7.0125 12.475,-14.1875 12.5,-27.5 -3.85,-4.0625 -9.8113,-6.0125 -11.25,-12.5 z"
       inkscape:connector-curvature="0" />
    <path
       id="path3110"
       d="m 1483.6672,647.80861 c 20.175,26.8375 -21.55,57.4375 -46.25,42.5 -2.8625,-1.7375 -9.3875,-9.9 -10,-15 -2.4,-20.025 10.225,-32.8 30,-35 11.1387,-1.2375 22.2,2.125 26.25,7.5 z"
       inkscape:connector-curvature="0" />
    <path
       id="path3112"
       d="m 1479.9172,772.80861 c 0.1625,55.22625 -30.9125,103.03875 -66.25,117.5 -49.875,20.4125 -87.875,-17.63625 -88.75,-66.25 -0.6375,-35.1625 14.125,-73.26125 31.25,-93.75 12.025,-14.4 28.2,-26.575 52.5,-30 47.8512,-6.725 71.1262,30.95 71.25,72.5 z m -56.25,48.75 c 13.25,-20.775 24.5625,-87.99875 -17.5,-78.75 -20.3375,4.475 -35.9625,36.42625 -35,66.25 0.4375,13.75 5.075,27.2 16.25,30 14.6137,3.66375 29.1125,-6.3125 36.25,-17.5 z"
       inkscape:connector-curvature="0" />
    <path
       id="path3116"
       d="m 1423.6672,656.55861 c 4.0625,21.3125 -15.575,38.175 -35,37.5 -9.4125,-0.325 -23,-7.225 -25,-17.5 -3.9125,-20.0625 10.3625,-34.0625 30,-36.25 15.1887,-1.6875 27.6887,4.125 30,16.25 z"
       inkscape:connector-curvature="0" />
    <path
       id="path3118"
       d="m 1392.4172,1017.8086 c 1.6875,3.7763 1.6875,9.975 0,13.75 -2.775,2.6375 -6.025,-1.3125 -11.25,0 -11.025,11.8 -3.225,53.3625 2.5,68.75 -6.4125,3.175 -12.0625,7.1013 -20,8.75 -11.325,-18.25 -2.2,-56.35 -7.5,-77.5 -4.7125,-0.9625 -5.975,1.525 -10,1.25 -0.2375,-6.0737 -0.2875,-11.95 2.5,-15 2.075,-2.0875 7.3375,-1 11.25,-1.25 1.35,-3.65 2.8,-7.2 2.5,-12.5 5.25,-4.33749 11.4125,-7.74999 21.25,-7.49999 0.8375,8.33749 -4.1375,10.86249 -3.75,18.74999 1.7375,3.2625 10.6137,-0.6125 12.5,2.5 z"
       inkscape:connector-curvature="0" />
    <path
       id="path3120"
       d="m 1356.1672,367.80861 c -1.875,18.5375 -11.6125,29.225 -26.25,35 1.4375,6.4875 7.4,8.4375 11.25,12.5 -0.025,13.3125 -6.175,20.4875 -12.5,27.5 15.525,16.7125 -1.8625,39.1125 -18.75,42.5 0.8125,7.52625 7.4375,9.225 11.25,13.75 -8.25,11.75 -27.85,12.15 -43.75,16.25 1.575,8.20125 6.3875,19.175 2.5,28.75 -8,0.5 -14.4375,-0.5625 -18.75,-3.75 -6.45,3.55 -2.9125,17.10125 -8.75,21.25 -7.025,4.05 -13.325,-1.17375 -18.75,0 -7.825,1.68875 -9.8875,9.35 -17.5,11.25 1.7875,7.8 12.2125,6.9625 13.75,15 -12.4625,5.875 -27.025,9.65 -46.25,8.75 0.55,7.375 7.275,8.56375 7.5,16.25 -11.7,2.475 -22.775,5.5625 -33.75,8.75 0.8125,8.3625 10.425,7.9125 8.75,18.75 -10.5,2.95 -29.35,3.8375 -41.25,1.25 -4.4125,4.76375 -6.9875,11.35 -10,17.5 -10.1375,-3.1875 -14.1875,-12.47375 -20,-20 -5.9625,3.8375 -3.65,12.57625 -6.25,18.75 -2.5125,5.975 -7.5125,11.175 -12.5,13.75 -4.1,-7.9875 -9.4375,-14.725 -8.75,-27.5 -10.9875,6.5125 -19.4125,15.5875 -33.75,18.75 -4.1875,-7.9125 2.4875,-14.725 2.5,-22.5 -8.8,1.65 -22.9625,-4.0625 -31.25,-2.5 0.7625,7.98875 6.875,10.625 7.5,18.75 -14.57501,3.625 -25.77501,-6.625 -36.25001,-11.25 -6.0125,2.9625 -15.0625,8.7875 -23.75,5 1.05,-4.77375 1.6375,-10.0375 1.25,-16.25 -10.225,4.525 -26.5375,11.4125 -40,5 2.4,-5.1 6.025,-8.975 10,-12.5 -4.2625,-9.9 -12.9875,-15.35 -16.25,-26.25 -8.8,0.4625 -12.4625,-4.19875 -17.5,-7.5 -2.9375,2.88875 0.1,11.775 -2.5,15 -11.85,-1.9 -14.3625,-13.1375 -22.5,-18.75 -4.45,5.55 -6.5375,13.46375 -10,20 -10.15,-7.3375 -8.85,-22.2375 -15,-32.5 -4.4875,-7.4875 -12.175,-11.12375 -15,-18.75 2.1375,-7.8625 7.275,-12.725 7.5,-22.5 7.225,0.5625 12.775,-0.54875 16.25,-3.75 -1.325,-7.01125 -2.55,-14.1125 -6.25,-18.75 3.5875,-4.325 12.5875,-3.25 17.5,-6.25 -1.35,-11.5625 -6.3875,-19.45 -15,-23.75 1.3875,-6.1125 7.5875,-7.4125 10,-12.5 -6.1,-9.3125 -15.3625,-15.475 -27.5,-18.75 -2.275,-5.25 7.9,-7.575 8.75,-13.75 -4.25,-7 -14.025,-8.475 -23.75,-10 4.3875,-10.7125 4.425,-25.375 -3.75,-32.5 -6.8375,0.6625 -11.5875,3.4125 -15,7.5 -3.3,-0.875 -2.6375,-5.6875 -6.25,-6.25 1.225,-4.6125 5.475,-6.1875 7.5,-10 -1.9875,-7.175 -9.875,-8.45 -16.25,-11.25 4.85,-5.975 9.6875,-11.975 8.75,-23.75 -4.95,-3.6375 -12.7875,0.5125 -18.75,0 4.725,-10.35 13.325,-26.4125 5,-38.75 -5.775,-0.7625 -7.1875,2.8125 -12.5,2.5 0,-8.75 0.7,-18.1875 -3.75,-22.5 15.5875,-26.4625 -8.7125,-53.7625 -3.75,-81.25 9.1375,-0.8 13.5,3.175 20,5 8.7,-2.125 15.2375,-6.4375 20,-12.5 5.85,-1.65 13.8,-1.1875 17.5,-5 5.8875,2.8875 5.9125,8.9 12.5,8.75 14.65,-0.325 14.7125,-30.825 23.75,-40 6.7,-0.875 5.475,6.1875 11.25,6.25 5.525,-2.8125 4.875,-11.8 6.25,-18.75 9.3125,1.175 15.0875,10.9125 25,7.5 6.55,-4.25 2.95,-18.125 2.5,-26.25 10.4625,-3.7125 19.375,-8.95 23.75,-18.75 -0.15,-3.175 -1.825,-4.85 -5,-5 5.05,-7.775 19.575,-20.15 7.5,-30 9.2875,-4.05 15.275,-11.3875 18.75,-21.25 10.725,-6.325 30.725,-13.4125 45,-5 9.725,-3.6 14.4375,-12.225 25.00001,-15 8.15,3.925 5.8625,18.3 6.25,30 -7.9375,-0.4375 -13.75001,1.25 -20.00001,2.5 0.2,1.45 -0.275,2.225 -1.25,2.5 3.1,16.0625 12.03751,26.3 23.75001,33.75 -2.725,3.975 -6.2375,3.0875 -10,7.5 -7.85001,9.2125 -6.63751,27.8875 -17.50001,28.75 -7.5875,0.6125 -6.75,-7.6125 -15,-8.75 -6.2,6.7125 -10.725,15.1125 -12.5,26.25 -5.2125,0.625 -5.5125,-3.65 -11.25,-2.5 -8.2875,3.375 -7.4875,15.85 -11.25,23.75 -5.3625,-2.1375 -10.7375,-4.2625 -18.75,-3.75 -3.225,13.775 5.3,26.2625 11.25,35 -4.9125,7.5875 -9.2625,15.7375 -11.25,26.25 7.7625,7.25 23.8625,-0.475 28.75,-7.5 6.3625,5.7125 10.5375,13.625 21.25,15 6.675,-4.2 10.325,-16.55 7.5,-26.25 4.1625,1.25 8.5875,2.25 12.5,3.75 6.425,-1.9 8.4625,-8.2125 11.25001,-13.75 6.875,10.3125 -3.00001,28.675 8.75,32.5 14.3375,4.6625 28.35,-15.925 32.5,-28.75 9.2875,7.375 21.9125,11.425 40,10 5.0375,-2.2625 5.2625,-9.4375 3.75,-15 15.6875,0.7 29.2125,-0.7875 37.5,-7.5 7.525,9.15 13.3625,19.9625 26.25,23.75 0.15,7.2375 -5.4875,8.6875 -6.25,15 -8.45,0.725 -20.2625,-1.9375 -25,2.5 -9.6375,-13.9375 -24.05,0.65 -26.25,12.5 -4.175,-0.825 -6.1125,-3.8875 -10,-5 -8.5875,3.075 -11.0625,12.2625 -15,20 -9.375,-8.3375 -24.0625,-3.425 -32.5,2.5 0,-3.75 0,-7.5 0,-11.25 -18.6125,-6 -28.6875,7.0625 -40.00001,12.5 -5.4625,-8.2875 -12.425,-15.075 -20,-21.25 -5.9,3.6875 -7.2375,11.925 -8.75,20 -9.95,-2.0375 -20.1375,-1.2625 -23.75,6.25 -5.75,-3.425 -12.55,-5.775 -22.5,-5 -7.475,4.925 -2.6875,21.2625 0,27.5 -5.6875,1.8125 -12.8,2.2 -17.5,5 0.2,1.45 -0.275,2.225 -1.25,2.5 -1.9875,12.575 8.65,18.6125 8.75,25 -8.675,2.575 -16.8625,5.6375 -21.25,12.5 3.225,19.275 12.1625,32.85 26.25,41.25 -1.925,6.825 -6,11.5 -7.5,18.75 5.4375,8.75 18.2375,2.6 27.5,1.25 0.4375,7.9 -1.5,18.1625 2.5,22.5 5.775,-0.8875 10.4375,-2.9 16.25,-3.75 7.1125,5.3875 12.125,12.875 26.25,11.25 1.0375,8.125 6.225,12.1125 11.25,16.25 15.22501,-0.6 24.91251,-6.75 38.75001,-8.75 2.0875,3.75 2.3125,9.3625 6.25,11.25 -4.2375,5.35 -14.9125,4.2625 -16.25,12.5 3.0375,8.625 11.925,11.4125 17.5,17.5 -2.275,8.35125 -13.1375,16.2625 -11.25,25 2.125,9.7875 13.8125,8.66375 28.75,8.75 0.175,5.6625 5.125,6.5375 5,12.5 -4.85,0.975 -8.1625,3.5 -11.25,6.25 3.925,11.4875 15.2375,15.5875 22.5,23.75 -0.7625,6.9625 -6.775,11.7625 -5,17.5 4.2375,13.66375 37.6125,4.575 46.25,0 3.05,5.70125 4.1875,13.3125 10,16.25 12,-4.2375 16.2125,-16.2875 21.25,-27.5 16.825,7.65 26.8,-4.3125 26.25,-21.25 3.875,-2.9625 4.775,5.4125 8.75,6.25 9.75,-5.6625 13,-17.8375 12.5,-33.75 4.5875,-0.39875 11.0625,1.06375 13.75,-1.25 5.4375,-8.67375 4.3875,-27.25 -1.25,-35 1.4,-4.4375 10.325,-1.35 12.5,-5 -0.3625,-8.3875 -4.025,-13.475 -7.5,-18.75 8.75,-5.8375 18.5625,-10.6 17.5,-26.25 -1.025,-3.1375 -6.5875,-1.7375 -8.75,-3.75 10.1375,-9.025 19.45,-18.8875 26.25,-31.25 5.3125,-0.3 6.725,3.275 12.5,2.5 12.4125,-4.1375 3.8,-24.6125 0,-33.75 3.4875,-6.925 9.375,-11.45 12.5,-18.75 -4.3375,-6.0875 -7.925,-12.5 -13.75,-17.5 -8.575,-7.3625 -22.2875,-8.8375 -28.75,-18.75 -0.325,-6.1625 6.35,-5.3125 6.25,-11.25 -1.8,-10.7 -10.0875,-14.9125 -20,-17.5 0.1875,-3.975 2.8375,-5.5 2.5,-10 -5.0125,-6.2375 -11.6125,-10.8875 -21.25,-12.5 1.175,-7.0125 -3.1875,-8.475 -3.75,-13.75 12.125,-1.2875 10.6,11.075 18.75,13.75 3.925,-1.4875 6.6125,-4.2125 11.25,-5 2.3,7.2875 5.2875,13.875 11.25,17.5 4.775,1.1125 7.975,-2.0375 10,0 3.15,9.35 5.8,19.2125 12.5,25 6.7625,3.8875 17.1375,-11.1125 20,-11.25 4.0625,-0.2 4.5,6.0875 10,6.25 13,-6.475 23.025,-20.125 20,-38.75 1.8375,-7.0375 8.8875,-7.2375 8.75,-13.75 -0.1625,-7.4875 -10.4375,-11.875 -17.5,-15 0.775,-5.8875 5.675,-7.6625 6.25,-13.75 5.2625,2.25 9.7875,5.2125 17.5,5 7.75,12.25 20.3625,19.6375 23.75,36.25 -2.7625,3.9 -10.0125,3.3125 -13.75,6.25 -1.8875,10.6375 5.7,11.8 8.75,17.5 1.3375,11.75 -1.825,19 -5,26.25 2.125,4.5375 11.1625,2.175 15,5 -0.062,17.85 -13.175,22.6625 -15,38.75 8.5762,4.7625 18.4137,8.2625 23.75,16.25 z"
       inkscape:connector-curvature="0"
       style="fill:#8cc63f" />
    <path
       id="path3122"
       d="m 1341.1672,987.80861 c 2.6375,4.18875 -1.275,10.7125 -1.25,16.24999 -6.1375,1.775 -14.4875,1.35 -12.5,11.25 1.7375,3.2625 10.6125,-0.6125 12.5,2.5 2.3125,2.6875 0.8375,9.1625 1.25,13.75 -3.2375,3.1 -6.125,-1.2125 -11.25,0 -7.6625,6.0638 -5.575,19.7875 -5,30 0.875,15.3625 4.2625,32.2138 5,45 -7.5,0 -15,0 -22.5,0 -4.775,-22.7 -0.1375,-51.0625 -2.5,-73.75 -3.1,-2.9487 -7.3625,-0.013 -11.25,0 -0.125,-5.125 -0.25,-10.25 1.25,-13.75 2.1875,-2.8125 7.5375,-2.4625 11.25,-3.75 2.6625,-17.38749 12.1637,-34.42499 35,-27.49999 z"
       inkscape:connector-curvature="0" />
    <path
       id="path3124"
       d="m 1309.9172,852.80861 c 0.9625,11.6125 2.725,24.91375 0,35 -19.1,6.4875 -44.7,3.75 -70,3.75 -24.325,0 -50.1125,1.8625 -70,-2.5 -7.3,-20.2125 1.3875,-42.4125 5,-63.75 7.075,-41.8125 18.7875,-80.44875 31.25,-120 6.15,-19.5 13.825,-41.48625 22.5,-53.75 9.2375,-3.35 48.875,-5.86125 57.5,2.5 -1.775,17.0375 -12.4375,30.43875 -20,45 -14.7375,28.3625 -26.8125,56.2375 -35,93.75 -3.45,15.7875 -9.175,37.9 5,51.25 31.7,8.575 44.8,-18.375 65,-21.25 8.975,4.175 7.7625,18.1625 8.75,30 z"
       inkscape:connector-curvature="0" />
    <path
       id="path3126"
       d="m 1264.9172,1016.5586 c 26.375,10.8513 15.35,56.8375 20,87.5 -31.4875,11.4375 -79.175,-3.925 -58.75,-38.75 1.4125,-2.4125 7.1375,-7.9625 10,-10 8.5,-6.0375 21.9,-4.9625 27.5,-12.5 -1.725,-9.3125 -9.2125,-12.725 -17.5,-11.25 -8.65,1.55 -7.5875,8.9625 -13.75,11.25 -22.55,-17.075 11.0762,-35.0625 32.5,-26.25 z m -2.5,72.5 c 2.7125,-5.3125 5.9625,-24.7375 -2.5,-26.25 -22.0988,-5.85 -24.7488,35.8513 2.5,26.25 z"
       inkscape:connector-curvature="0" />
    <path
       id="path3130"
       d="m 1196.1672,1015.3086 c 23.075,8.8263 12.4,65.275 10,90 -4.875,2.6263 -14.375,0.625 -21.25,1.25 0.5875,-18.375 14.475,-56.8625 0,-75 -30.0375,-0.2125 -16,51.5 -15,73.75 -4.875,2.6263 -14.375,0.625 -21.25,1.25 -0.575,-37.775 -6.2625,-91.1875 6.25,-119.99999 5.8375,0 11.6625,0 17.5,0 1.2625,9.28875 -5.5625,19.89999 -5,32.49999 10.85,1.0638 17.8625,-7.9125 28.75,-3.75 z"
       inkscape:connector-curvature="0" />
    <path
       id="path3132"
       d="m 1133.6672,1074.0586 c 2.3125,20.7875 -6.775,33.1513 -22.5,35 -53.975,6.3625 -46.8625,-93.85 0,-95 10.4125,-0.25 14.9375,2.15 22.5,10 1.05,8.55 -1.7,13.3013 -5,17.5 -9.7625,-2.1375 -5.9875,-8.8 -15,-10 -28.275,-3.7625 -30.8625,61.875 3.75,55 3.7375,-0.7375 7.7125,-3.9625 10,-6.25 1.5512,-1.55 1.4125,-8.55 6.25,-6.25 z"
       inkscape:connector-curvature="0" />
    <path
       id="path3134"
       d="m 1063.6672,1079.0586 c 2.4375,43.95 -80.45001,37.4375 -58.75,-10 4.8125,5.2625 6.0875,14.775 15,18.75 9.325,4.15 21.9375,2.3638 22.5,-7.5 0.85,-14.8625 -36.025,-14.8237 -37.5,-31.25 -8.33751,-37.9625 41.4875,-43.0375 56.25,-22.5 -1.425,6.9125 -5.3625,11.3 -10,15 -5.6125,0.375 -6.975,-8.6125 -13.75,-10 -5.475,-1.1237 -11.6625,-0.6375 -15,5 5.4125,16.5125 25.925,15.275 35,26.25 2.7387,3.3125 5.9,10.0625 6.25,16.25 z"
       inkscape:connector-curvature="0" />
    <path
       id="path3136"
       d="m 966.16719,1014.0586 c 31.9125,0.9375 21.7875,65.05 17.5,92.5 -7.0875,0 -14.1625,0 -21.25,0 0.35,-12.5 5.1125,-22.675 6.25,-37.5 1.025,-13.25 2.3125,-34.4 -6.25,-37.5 -21.975,-7.9375 -18.575,39.0375 -17.5,55 0.4,5.8875 2.225,12.6875 2.5,18.75 -4.875,2.6263 -14.375,0.625 -21.25,1.25 -0.8375,-38.1875 -5.6625,-90.475 6.25,-119.99999 6.0875,0.575 14.6375,-1.3125 18.75,1.25 -2,10.5 -6.35,18.64999 -5,32.49999 10.1625,-0.6875 10.77625,-6.525 20,-6.25 z"
       inkscape:connector-curvature="0" />
    <path
       id="path3138"
       d="m 918.66719,770.30861 c 0.3375,39.6375 -15.7375,79.8375 -40,101.25 -20.2125,17.85 -49.975,28.075 -76.25,16.25 -13.9875,-6.3 -23.975,-19.7625 -28.75,-31.25 -24.425,-58.72375 18.225,-133.075 52.5,-150 7.1875,-3.55 17.9375,-6.1 32.5,-6.25 38.4375,-0.3875 59.6375,27.825 60,70 z m -60,56.25 c 16.2125,-17.58625 31.75,-90.13625 -10,-85 -31.4125,3.87625 -49.675,74.025 -22.5,95 5.8375,0 11.6625,0 17.5,0 4.55125,-4.025 11.0375,-5.7 15,-10 z"
       inkscape:connector-curvature="0" />
    <path
       id="path3140"
       d="m 911.16719,1074.0586 c 9.125,37.9388 -36.7875,44.3875 -52.5,22.5 -18.1875,-25.3375 -3.7375,-71.325 17.5,-80 20.85,-8.5237 49.625,7.9625 28.75,25 -6.8875,-3.0875 -4.7375,-8.4375 -11.25,-10 -29.8125,-7.125 -34.05,61.7625 1.25,55 4.475,-0.8612 7.4,-3.6125 10,-6.25 1.55125,-1.575 2.10125,-7.4375 6.25,-6.25 z"
       inkscape:connector-curvature="0" />
    <path
       id="path3144"
       d="m 827.41719,1020.3086 c 19.1625,15 7.3375,57.0625 12.5,85 -29.6125,3.8375 -61.2125,2.4625 -62.5,-22.5 -0.375,-7.3375 2.9625,-15.525 6.25,-20 7.7125,-10.475 23.3,-11.7125 35,-18.75 0.425,-10.825 -9.2625,-14.1487 -17.5,-12.5 -8.45,1.6888 -7.0375,8.4 -12.5,11.25 -5.4,-1.0375 -8.0125,-4.425 -8.75,-7.5 -5.575,-23.1625 34.35,-25.3 47.5,-15 z m -7.5,66.25 c -0.6625,-7.675 1.425,-18.0987 -1.25,-23.75 -12.3625,-3.425 -24.4,7.2138 -21.25,18.75 2.0125,7.3875 15.1875,12.1625 22.5,5 z"
       inkscape:connector-curvature="0" />
    <path
       id="path3148"
       d="m 776.16719,990.30861 c -1.85,8.9875 -6.1125,15.56249 -10,22.49999 -16.8875,-14.53749 -52.5375,-2.4125 -38.75,23.75 13.125,-0.625 18.85,-8.65 35,-6.25 0.4,10.8125 -4.6875,16.15 -6.25,25 -8.8375,-0.9375 -12.375,-3.125 -18.75,-1.25 -19.0375,5.6 -9.05,34.975 -6.25,52.5 -8.3375,0 -16.6625,0 -25,0 -5.85,-32.7 -6.75,-86.8125 2.5,-116.24999 22.25,0.1875 49.1875,-0.2625 67.5,0 z"
       inkscape:connector-curvature="0" />
    <path
       id="path3150"
       d="m 767.41719,725.30861 c 12.2875,29.7875 -8.2375,59.975 -27.5,71.25 -10.1875,5.96375 -22.025,8.4875 -38.75,13.75 -8.4,2.6375 -32.3125,9.86375 -32.5,20 -0.3625,20.475 40.9375,16.25 53.75,8.75 6.5125,-3.8125 11.1875,-8.6 15,-13.75 3.8125,-5.15 3.525,-12.775 13.75,-13.75 9.8625,12.875 3.7875,30.6125 -1.25,41.25 -14.6625,30.95 -75,57.98875 -110,26.25 -11.0875,-10.05 -17.3625,-27.16125 -18.75,-40 -6.9,-63.6 35.9875,-139.3625 97.5,-138.75 24.7125,0.25 42.5625,10 48.75,25 z m -92.5,52.5 c 11.875,-3.8125 62.8875,-12.7625 48.75,-31.25 -15.16125,-19.82375 -52.375,14.625 -48.75,31.25 z"
       inkscape:connector-curvature="0" />
    <path
       id="path3154"
       d="m 632.41719,679.05861 c 5.2625,28.6875 -17.3125,45.17625 -43.75,41.25 -4.1125,-4.6375 -1.35,-16.15 -5,-21.25 -12.1,-5.65 -26.1,-3.2 -36.25,1.25 -28,12.3 -51.925,63.2875 -50,101.25 0.6,11.875 5.7375,25.6625 15,30 22.525,10.5625 52.1375,-3.95 51.25,-23.75 -0.35,-7.8 -4.275,-10.05 -7.5,-13.75 -2.4125,-2.7625 -9.5125,-6.22375 -8.75,-12.5 0.775,-6.3625 17.625,-12.65 27.5,-16.25 12.575,-4.575 21.45,-6.69875 33.75,-8.75 6.625,13.8125 4.325,29.725 3.75,45 -0.5625,14.9625 -0.7875,32.4875 -5,45 -9.5625,28.425 -42.0625,45.9375 -81.25,46.25 -52.225,0.425 -82.725,-29.19875 -83.75,-80 -0.7875,-39.24875 13.6,-78.75 33.75,-107.5 18.9375,-27.025 46.4,-53.325 83.75,-57.5 31.11375,-3.475 67.96375,6.4875 72.5,31.25 z"
       inkscape:connector-curvature="0" />
    <g
       id="g3156"
       transform="matrix(1.25,0,0,1.25,323.29719,-250.00389)" />
  </g>
</svg>
